<svg version="1.1" xmlns="http://www.w3.org/2000/svg" xmlns:xlink="http://www.w3.org/1999/xlink" width="482.40657" height="362.81248" viewBox="0,0,482.40657,362.81248"><g transform="translate(0.39784,0.94405)"><g data-paper-data="{&quot;isPaintingLayer&quot;:true}" fill="none" fill-rule="nonzero" stroke="none" stroke-width="none" stroke-linecap="butt" stroke-linejoin="miter" stroke-miterlimit="10" stroke-dasharray="" stroke-dashoffset="0" font-family="none" font-weight="none" font-size="none" text-anchor="none" style="mix-blend-mode: normal"><g id="haunted-forest" stroke-width="1"><path d="M-0.3476,-0.54639h482.30873v360.62626h-482.30873v-360.62626" id="Rectangle-path" fill="#000000"/><g id="Group-5" fill="#281446"><path d="M423.63192,128.1671c-7.88776,11.20363 -27.48155,6.98343 -39.13734,6.93319c-0.05024,0.30144 -0.15072,0.55265 -0.2512,0.85409c-0.30144,-0.2512 -0.55265,-0.55265 -0.75361,-0.85409l-12.35916,-0.05024c-5.97862,2.76323 -9.64617,3.21539 -13.61517,9.04329c-3.41635,4.97381 -6.63175,9.09353 -12.45964,11.30411c-11.00267,4.11972 -24.76856,2.41154 -36.2234,2.16034c-14.11758,-0.35168 -28.18492,-1.10529 -42.30249,-1.30625c-7.13415,-0.10048 -14.31854,0 -21.50293,-0.05024c-5.37573,0 -11.10315,0.35168 -16.17744,-1.75842c-8.54088,-3.56707 -11.25387,-13.51469 -19.24211,-17.73489c-9.19401,-4.92357 -21.10101,-2.81347 -31.09887,-2.81347c-18.38802,0.05024 -44.21163,-3.16515 -52.853,-22.40726c-10.09834,-22.40726 26.22554,-23.06039 38.73542,-24.8188c10.45002,-1.50721 18.94067,-4.72261 24.51736,-14.11758c5.17477,-8.74185 8.23944,-15.876 19.54355,-16.27792c32.05343,-1.15553 64.50879,-0.60289 96.61247,0c16.42864,0.30144 32.90752,0.65313 49.28592,2.1101c5.67718,0.5024 13.16301,0.85409 17.43345,5.17477c3.11491,3.16515 3.36611,7.53607 4.97381,11.40459c1.70818,4.16996 4.87333,6.63175 8.64136,8.89257c10.95243,1.10529 31.24959,-0.30144 37.27845,11.25387c5.02405,9.54569 7.63655,23.61303 0.95457,33.05824z" id="Shape"/><path d="M481.96114,15.77912l-15.97648,20.49812c-11.50507,0 -18.7397,-4.4714 -24.71832,-7.53607c-8.74185,-4.52164 -15.12239,-8.28968 -31.95295,-8.28968c-10.34954,0 -42.50346,9.04329 -59.48474,8.49064c-16.98129,-0.55265 -35.1181,-8.49064 -53.80757,-8.49064c-28.33564,0 -25.42169,13.46445 -53.70709,13.46445c-3.41635,0 -6.53126,-0.15072 -9.44521,-0.35168c-8.79209,-0.65313 -17.33297,-3.01443 -25.17049,-7.03367c-20.44788,-10.0481 -41.24744,-4.06948 -46.67342,-1.40673c-10.24906,4.97381 -16.88081,12.20844 -35.41955,12.20844c-12.1582,0 -18.4885,-5.02405 -24.5676,-8.54088c-8.08872,-4.72261 -15.42383,-8.28968 -31.60127,-8.28968c-28.33564,0 -41.54889,15.82576 -69.83429,15.82576v-36.82628h482.30873v16.27792z" id="Shape_1_"/><path d="M164.08954,2.01323h283.7583c7.73704,0 34.26402,0.40192 34.11329,2.81347c-1.30625,18.78994 -55.66647,34.51522 -135.54885,40.6948c-21.85461,1.70818 -43.96043,-1.05505 -65.76481,-3.06467c-36.27364,-3.31587 -104.75143,4.82309 -116.55794,-40.49384z" id="Shape_2_"/><path d="M34.97147,69.68717c0.40192,-4.67237 5.8279,-5.67718 9.64617,-6.22982c5.57669,-0.85409 11.25387,-1.20577 16.88081,-1.05505c10.60074,0.40192 21.25173,-0.10048 31.80223,0.70337c5.67718,3.61732 0.80385,8.28968 -4.01924,9.49545c-6.12934,1.50721 -12.56012,1.15553 -18.84018,1.45697c-6.63175,0.30144 -13.21325,0.15072 -19.84499,0.15072c-5.47621,0 -12.71084,0.90433 -15.62479,-4.52164z" id="Shape_3_"/><path d="M152.73519,37.98542c0.40192,-4.67237 5.8279,-5.67718 9.64617,-6.22982c5.57669,-0.85409 11.25387,-1.20577 16.88081,-1.05505c10.60074,0.40192 21.25173,-0.10048 31.80223,0.70337c5.67718,3.61732 0.80385,8.28968 -4.01924,9.49545c-6.12934,1.50721 -12.56012,1.15553 -18.84018,1.45697c-6.63175,0.30144 -13.21325,0.15072 -19.84499,0.15072c-5.42597,0 -12.6606,0.90433 -15.62479,-4.52164z" id="Shape_4_"/><path d="M33.31354,102.59469c0.85409,-9.89738 12.4094,-12.00748 20.49812,-13.16301c11.80652,-1.70818 23.96472,-2.66275 35.87171,-2.21058c22.4575,0.90433 45.06572,-0.20096 67.47298,1.45697c12.00748,7.63655 1.65794,17.58417 -8.54088,20.14644c-12.96205,3.26563 -26.72794,2.51202 -39.94119,3.06467c-14.0171,0.60289 -27.98395,0.30144 -42.05129,0.35168c-11.75628,0 -27.07963,1.90914 -33.30945,-9.64617z" id="Shape_5_"/><path d="M411.67469,67.37611c0.40192,-7.18439 5.47621,-8.74185 9.04329,-9.64617c5.17477,-1.25601 2.51202,-0.80385 12.4094,-0.65313c7.13415,0.10048 9.24425,14.06734 3.61732,15.52431c-5.8279,1.50721 -4.32068,1.50721 -10.50026,1.55746c-5.12453,0.10048 -11.85676,1.55746 -14.56974,-6.78247z" id="Shape_6_"/><path d="M389.56887,152.83519c0.55265,-7.18439 7.63655,-8.69161 12.56012,-9.54569c7.23463,-1.20577 3.51683,-0.75361 17.33297,-0.55265c9.94762,0.10048 13.01229,14.11758 5.17477,15.52431c-8.13896,1.50721 -6.02886,1.45697 -14.67022,1.50721c-7.13415,0 -16.57936,1.40673 -20.39764,-6.93319z" id="Shape_7_"/><path d="M69.33597,140.57651c-1.00481,-2.21058 -1.00481,-2.21058 -0.95457,-3.51683c4.06948,-4.27044 9.74666,-4.42116 15.27311,-4.37092c3.46659,0.05024 11.55531,0.20096 10.75147,5.07429c-0.70337,4.16996 -5.32549,4.77285 -8.89257,5.32549c-5.47621,1.00481 -11.20363,0.10048 -16.17744,-2.51202z" id="Shape_51_"/></g><g id="Moon"><path d="M116.48142,-0.4988c-1.70818,8.4404 -2.51202,10.45002 -8.64136,17.88562c-18.78994,22.75894 -51.54675,17.18225 -64.55903,-0.80385c-4.32068,-6.02886 -5.57669,-10.14858 -6.12934,-17.08177z" id="Shape_8_" fill="#f0e6d2"/><path d="M54.28369,1.91275c2.26082,0 4.27044,0.90433 5.72742,2.3613c1.45697,1.45697 2.3613,3.51683 2.3613,5.72742c0,2.21058 -0.90433,4.27044 -2.3613,5.72742c-1.45697,1.45697 -3.51683,2.3613 -5.72742,2.3613c-2.21058,0 -4.27044,-0.90433 -5.72742,-2.3613c-1.45697,-1.45697 -2.3613,-3.51683 -2.3613,-5.72742c0,-2.21058 0.90433,-4.2202 2.3613,-5.72742c1.45697,-1.45697 3.51683,-2.3613 5.72742,-2.3613z" id="Oval" fill="#dcd2b4"/><path d="M70.71233,16.28153c0.80385,0 1.55746,0.35168 2.1101,0.85409c0.55265,0.55265 0.85409,1.30625 0.85409,2.1101c0,0.80385 -0.35168,1.55746 -0.85409,2.1101c-0.55265,0.55265 -1.30625,0.85409 -2.1101,0.85409c-0.80385,0 -1.55746,-0.35168 -2.1101,-0.85409c-0.55265,-0.55265 -0.85409,-1.30625 -0.85409,-2.1101c0,-0.80385 0.35168,-1.55746 0.85409,-2.1101c0.55265,-0.5024 1.30625,-0.85409 2.1101,-0.85409z" id="Oval_1_" fill="#dcd2b4"/><path d="M132.15646,12.41301c1.35649,0 2.61251,0.55265 3.51683,1.45697c0.90433,0.90433 1.45697,2.16034 1.45697,3.51683c0,1.35649 -0.55265,2.61251 -1.45697,3.51683c-0.90433,0.90433 -2.16034,1.45697 -3.51683,1.45697c-1.35649,0 -2.61251,-0.55265 -3.51683,-1.45697c-0.90433,-0.90433 -1.45697,-2.16034 -1.45697,-3.51683c0,-1.35649 0.55265,-2.61251 1.45697,-3.51683c0.85409,-0.90433 2.1101,-1.45697 3.51683,-1.45697z" id="Oval_2_" fill="#dcd2b4"/></g><path d="M254.22098,-0.54639c0.05024,49.48689 -0.45216,178.60495 -1.00481,186.54295c-0.95457,0.35168 -1.95938,0.55265 -3.01443,0.55265c-0.95457,-0.90433 -0.80385,-139.66857 -0.05024,-187.0956z" id="Shape_9_" fill="#460a00"/><path d="M159.11573,-0.54639c0.15072,49.48689 -0.70337,165.04002 -1.70818,172.97802c-1.65794,0.35168 -3.36611,0.55265 -5.07429,0.55265c-1.6077,-0.95457 -1.30625,-126.10364 -0.05024,-173.53066z" id="Shape_10_" fill="#460a00"/><g id="Grass-BG"><path d="M481.9109,159.20702v25.67289l-482.30873,-1.30625v-45.31692c28.2854,0 41.49865,15.82576 69.83429,15.82576c16.17744,0 23.51255,-3.56707 31.60127,-8.28968c6.0791,-3.51683 12.4094,-8.54088 24.5676,-8.54088c18.53874,0 25.17049,7.23463 35.41955,12.20844c5.42597,2.66275 26.22554,8.64136 46.67342,-1.40673c7.83752,-4.01924 16.3784,-6.38054 25.17049,-7.03367c2.91395,-0.20096 6.02886,-0.35168 9.44521,-0.35168c28.2854,0 25.37145,13.46445 53.70709,13.46445c18.68946,0 36.82628,-7.938 53.80757,-8.49064c16.98129,-0.55265 49.1352,8.49064 59.48474,8.49064c16.83057,0 23.21111,-3.76804 31.95295,-8.28968c5.92838,-3.06467 29.18973,-7.53607 40.6948,-7.53607v20.90005z" id="Shape_11_" fill="#463c00"/><path d="M233.7731,182.97077h-38.63494c1.80866,-6.73223 5.62694,-11.70603 12.30892,-14.31854c3.36611,-1.35649 6.83271,-2.16034 10.34954,-1.8589c6.17958,0.5024 11.55531,3.01443 14.36878,9.89738c0.20096,0.5024 0.55265,1.00481 0.75361,1.50721c0.65313,1.50721 0.95457,3.11491 0.85409,4.72261z" id="Shape_12_" fill="#322800"/><path d="M168.56094,183.52342h-95.20573c4.42116,-6.73223 13.91662,-11.70603 30.34526,-14.31854c8.39016,-1.45697 16.98129,-2.05986 25.52217,-1.8589c15.27311,0.5024 28.43612,3.01443 35.41955,9.89738c0.5024,0.5024 1.30625,1.00481 1.8589,1.50721c1.6077,1.55746 2.26082,3.16515 2.05986,4.72261z" id="Shape_13_" fill="#322800"/></g><g id="Tree-3"><path d="M398.20995,24.87265c-0.90433,7.58631 -1.6077,15.17263 -2.61251,22.85942c-1.00481,7.73704 -3.21539,15.77551 -7.03367,22.60822c-0.40192,0.70337 -0.80385,1.45697 -1.15553,2.16034l-0.95457,-8.59112c2.81347,-6.0791 5.02405,-12.50988 6.48102,-19.09139c1.6077,-7.48583 2.51202,-15.07215 2.71299,-22.7087c0.10048,-3.86852 1.90914,-7.6868 2.1101,-11.55531c0.20096,-3.26563 0.60289,-7.88776 1.35649,-11.05291c0.75361,0 1.55746,-0.2512 2.31106,0c1.35649,7.38535 -2.41154,17.93586 -3.21539,25.37145z" id="Shape_14_" fill="#460a00"/><path d="M354.8524,32.50921c0.75361,-0.30144 1.50721,-0.5024 2.31106,-0.55265c0.85409,3.16515 0.5024,6.63175 0.85409,9.84714c0.40192,3.81828 0.45216,7.6868 0.70337,11.55531c0.5024,7.63655 1.75842,15.17263 3.66756,22.55798c1.80866,6.68199 4.32068,13.11277 7.53607,19.19187c1.70818,3.31587 3.81828,6.43078 5.67718,9.69642c1.8589,3.21539 3.11491,6.5815 5.07429,9.74666c0,1.15553 0.5024,2.31106 0,3.66756c-2.21058,-2.51202 -4.62213,-4.87333 -6.73223,-7.43559c-2.3613,-2.91395 -4.06948,-6.3303 -6.02886,-9.49545c-4.11972,-6.63175 -6.63175,-14.61998 -7.98824,-22.25654c-1.35649,-7.6868 -2.3613,-15.17263 -3.56707,-22.75894c-1.20577,-7.38535 -2.56227,-16.32816 -1.50721,-23.76375z" id="Shape_15_" fill="#824600"/><path d="M382.28371,-0.4988h8.64136c0.05024,1.20577 0.05024,2.56227 0.05024,3.76804c0,3.16515 -0.10048,6.3303 -0.15072,9.54569c-0.20096,10.19882 -0.40192,20.29716 -0.55265,30.49598c-0.40192,25.67289 0.70337,51.2453 1.00481,76.91819c0.15072,9.74666 -0.20096,19.49331 -0.2512,29.18973c-0.05024,9.89738 0.2512,19.89524 -0.5024,29.69213c-1.30625,0.15072 -9.04329,1.20577 -10.19882,1.00481z" id="Shape_16_" fill="#642800"/><path d="M386.80536,-0.4988c0.15072,49.48689 -0.70337,171.26984 -1.65794,179.20784c-1.65794,0.35168 -3.41635,0.55265 -5.12453,0.55265c-1.6077,-0.95457 -1.30625,-132.33346 -0.05024,-179.76048z" id="Shape_17_" fill="#824600"/></g><g id="Tree-2"><path d="M174.57716,43.26067c1.45697,-2.21058 2.66275,-4.52164 4.2202,-6.73223c1.70818,-2.41154 3.16515,-5.02405 4.72261,-7.53607c0.60289,-0.95457 1.15553,-1.95938 1.80866,-2.91395c1.45697,-2.21058 3.01443,-4.42116 4.52164,-6.63175c1.00481,-1.65794 2.21058,-3.16515 3.51683,-4.57188c0.80385,-0.2512 1.50721,-0.5024 2.21058,-0.65313c0.30144,0 0.60289,0.05024 0.90433,0.10048c0,0.2512 0.05024,0.35168 0,0.45216c-1.45697,2.76323 -2.86371,5.57669 -4.4714,8.28968c-2.26082,3.81828 -4.62213,7.48583 -6.98343,11.20363c-0.15072,0.30144 -0.35168,0.55265 -0.55265,0.85409c-1.20577,1.75842 -2.3613,3.46659 -3.56707,5.22501c-1.80866,2.66275 -3.56707,5.32549 -5.42597,7.938c-0.60289,0.85409 -1.30625,1.6077 -2.16034,2.21058l-1.15553,-3.41635z" id="Shape_18_" fill="#460a00"/><path d="M199.195,96.66632l3.86852,0.70337c1.30625,0.2512 2.56227,0.5024 3.86852,0.75361c0.60289,0.15072 1.15553,0.35168 1.80866,0.5024c0.2512,0.70337 0.45216,1.35649 0.75361,2.16034c-0.45216,0 -0.90433,-0.05024 -1.35649,-0.10048c-2.91395,-0.60289 -5.8279,-1.25601 -8.79209,-1.8589c-0.05024,-0.70337 -0.15072,-1.45697 -0.15072,-2.16034z" id="Shape_19_" fill="#460a00"/><path d="M179.75193,96.26439c-0.2512,0.95457 -0.5024,1.90914 -0.80385,2.81347c-0.75361,2.51202 -1.45697,5.02405 -2.26082,7.53607c-0.10048,0.35168 -0.2512,0.70337 -0.35168,1.05505c-0.70337,-0.05024 -1.45697,-0.10048 -2.16034,-0.10048c0.30144,-0.85409 0.60289,-1.70818 0.85409,-2.61251c0.45216,-1.6077 1.00481,-3.16515 1.65794,-4.67237c0.80385,-1.8589 1.50721,-3.81828 2.26082,-5.72742c0.20096,-0.35168 0.45216,-0.65313 0.70337,-0.95457c0.30144,0.85409 0.35168,1.80866 0.10048,2.66275z" id="Shape_20_" fill="#460a00"/><path d="M208.03733,81.142c-0.05024,1.35649 -0.15072,2.76323 -0.20096,4.11972c-0.05024,0.40192 -0.15072,0.80385 -0.15072,1.20577c-0.05024,4.32068 -1.6077,8.1892 -3.61732,11.907c-1.75842,3.46659 -4.4714,6.43078 -7.73704,8.54088c-3.21539,2.00962 -6.63175,3.66756 -10.45002,4.11972c-2.26082,0.30144 -4.57188,0.5024 -6.83271,0.70337c-2.81347,0.20096 -5.57669,0.70337 -8.23944,1.55746c-3.26563,1.05505 -6.3303,2.71299 -9.04329,4.82309c-1.40673,1.10529 -2.81347,2.16034 -4.16996,3.31587c-3.51683,2.96419 -6.5815,6.43078 -9.04329,10.34954c-1.00481,1.6077 -7.08391,11.95724 -7.33511,12.35916l-1.30625,-16.17744c0,-0.90433 9.09353,-11.60555 11.15339,-13.16301c3.26563,-2.41154 6.83271,-4.16996 10.45002,-5.87814c1.05505,-0.5024 2.16034,-0.85409 3.21539,-1.25601c0.55265,-0.20096 1.10529,-0.35168 1.65794,-0.45216c1.90914,-0.35168 3.81828,-0.70337 6.02886,-1.10529c0.85409,-0.05024 1.65794,-0.30144 2.41154,-0.70337c1.55746,-0.20096 3.31587,-0.55265 5.07429,-0.65313c1.45697,-0.15072 2.91395,-0.5024 4.32068,-1.00481c3.46659,-1.25601 6.68199,-3.26563 9.39497,-5.8279c0.15072,-0.15072 0.30144,-0.30144 0.5024,-0.45216c2.71299,-2.1101 4.57188,-4.87333 6.0791,-7.938c1.30625,-2.61251 2.1101,-5.42597 2.41154,-8.33992c0.05024,-0.60289 0.2512,-1.20577 0.35168,-1.90914c1.6077,-0.35168 3.21539,-0.15072 4.67237,0.55265c0.15072,0.45216 0.2512,0.90433 0.40192,1.30625z" id="Shape_21_" fill="#642800"/><path d="M173.42163,-0.4988c3.26563,-0.2512 5.42597,-0.35168 7.58631,0c0.60289,4.62213 -1.70818,27.98395 -2.86371,36.77604c-1.55746,12.1582 -5.67718,27.58203 -9.39497,32.85728c-6.0791,8.49064 -17.43345,15.92624 -27.83323,17.38321c-0.45216,-2.46178 0.35168,-4.72261 0.20096,-7.13415c2.05986,-0.85409 4.32068,-1.00481 6.38054,-1.95938c2.05986,-0.95457 3.7178,-2.31106 5.52645,-3.51683c3.41635,-2.16034 6.28006,-5.07429 8.4404,-8.54088c2.61251,-4.16996 6.48102,-14.06734 8.23944,-22.90966c1.75842,-9.24425 3.56707,-37.83109 3.7178,-42.95562z" id="Shape_22_" fill="#642800"/><path d="M72.43824,100.03243c-0.30144,-0.70337 -0.10048,-1.50721 0.5024,-2.00962c1.40673,0.35168 2.81347,0.70337 4.2202,1.15553c1.70818,0.5024 3.36611,1.15553 5.02405,1.70818c0.90433,0.30144 1.90914,0.40192 2.81347,0.65313c0.90433,0.2512 1.90914,0.45216 2.81347,0.80385c0.90433,0.2512 1.50721,1.15553 1.40673,2.05986c-0.55265,0.40192 -1.15553,0.15072 -1.70818,0c-1.50721,-0.35168 -3.01443,-0.65313 -4.52164,-1.00481c-0.55265,-0.10048 -1.10529,-0.2512 -1.65794,-0.45216c-1.40673,-0.70337 -2.81347,-1.25601 -4.32068,-1.6077c-1.45697,-0.40192 -2.91395,-0.85409 -4.57188,-1.30625z" id="Shape_23_" fill="#642800"/><path d="M99.51786,61.54821c0.10048,1.25601 0.20096,2.3613 0.30144,3.56707c-1.00481,-0.20096 -1.95938,-0.65313 -2.81347,-1.20577c-2.71299,-1.70818 -5.37573,-3.51683 -8.03848,-5.22501l-5.32549,-3.46659c-0.30144,-0.20096 -0.55265,-0.35168 -0.85409,-0.55265c-3.56707,-2.56227 -7.23463,-5.02405 -10.75147,-7.6868c-2.51202,-1.8589 -4.87333,-3.969 -7.28487,-5.92838c-0.05024,-0.05024 -0.10048,-0.20096 -0.15072,-0.45216c0.2512,-0.20096 0.5024,-0.30144 0.80385,-0.40192c0.75361,-0.10048 1.45697,-0.15072 2.26082,-0.2512c1.75842,0.80385 3.41635,1.75842 5.02405,2.91395c2.26082,1.45697 4.52164,2.91395 6.73223,4.42116c0.95457,0.65313 1.8589,1.30625 2.76323,2.00962c2.41154,1.70818 4.77285,3.56707 7.23463,5.17477c2.21058,1.40673 4.2202,3.11491 6.38054,4.62213z" id="Shape_24_" fill="#642800"/><path d="M105.59696,134.04524c1.00481,-0.2512 2.00962,0.30144 2.91395,0.65313c3.21539,1.30625 6.28006,2.91395 9.14377,4.87333c2.71299,2.00962 5.62694,3.81828 8.64136,5.37573c0.35168,0.20096 0.70337,0.45216 1.00481,0.70337c0.10048,0.75361 -0.55265,0.70337 -1.05505,0.5024c-1.45697,-0.45216 -2.91395,-1.00481 -4.27044,-1.65794c-4.82309,-2.46178 -9.34473,-5.37573 -13.96686,-8.13896c-1.00481,-0.55265 -2.00962,-1.15553 -2.41154,-2.31106z" id="Shape_25_" fill="#642800"/><path d="M142.97589,191.26916c-1.40673,-0.05024 -9.19401,-0.75361 -10.65098,-0.75361c0,-22.15606 2.46178,-122.3356 2.00962,-150.67124c-0.2512,-13.06253 -0.30144,-27.28059 -0.05024,-40.34312c2.46178,-0.10048 4.4714,0 8.13896,0c1.20577,3.76804 0.35168,10.45002 0.55265,14.36878c0.10048,1.80866 0.10048,3.61732 0.15072,5.37573c0.10048,6.38054 0.85409,165.89411 -0.15072,172.02345z" id="Shape_26_" fill="#642800"/><path d="M124.73859,-0.54904h13.96686c0.5024,48.23087 -0.80385,191.06459 -0.80385,191.06459c0,0 -8.33992,0.65313 -12.25868,-0.20096c-0.75361,-4.82309 -0.85409,-163.98497 -0.90433,-170.66695c-0.05024,-1.65794 -0.05024,-3.31587 -0.05024,-4.97381c0,-0.75361 0.05024,-14.41902 0.05024,-15.17263z" id="Shape_27_" fill="#824600"/><path d="M126.74821,111.38678c-11.35435,-8.23944 -17.18225,-15.72527 -21.30197,-23.46231c-2.16034,-4.27044 -3.91876,-8.74185 -5.27525,-13.31373c-1.25601,-4.01924 -5.02405,-18.7397 -4.52164,-43.55851c0.2512,-14.46926 1.70818,-26.4265 2.1101,-31.60127h6.93319c0.80385,5.32549 -2.76323,27.18011 -0.60289,57.5756c0.5024,6.88295 2.61251,13.51469 4.16996,20.19668c1.50721,6.22982 4.06948,12.10796 7.63655,17.38321c2.76323,4.32068 6.98343,6.83271 11.30411,9.39497c0.30144,1.25601 -0.2512,6.5815 -0.45216,7.38535z" id="Shape_28_" fill="#824600"/><path d="M127.20038,126.71013c0.5024,2.31106 0.85409,4.62213 1.00481,6.98343c-2.16034,1.15553 -12.86157,-3.61732 -14.7707,-4.62213c-3.26563,-1.70818 -6.3303,-3.81828 -9.04329,-6.3303c-26.72794,-23.96472 -24.5676,-36.7258 -25.32121,-43.96043l1.75842,-1.70818l1.50721,-0.15072c1.20577,2.31106 1.55746,5.07429 2.41154,7.53607c0.95457,2.66275 2.00962,5.22501 3.26563,7.78728c2.41154,4.92357 5.47621,9.49545 9.19401,13.56493c3.56707,3.969 7.13415,7.938 11.05291,11.60555c4.37092,4.16996 13.21325,7.53607 18.94067,9.29449z" id="Shape_29_" fill="#824600"/><path d="M134.63597,97.72137c1.8589,4.92357 2.51202,8.4404 1.45697,13.7659c-0.65313,3.41635 -3.11491,7.53607 -6.3303,4.42116c-4.11972,-4.01924 -2.16034,-24.01496 4.87333,-18.18706z" id="Shape_30_" fill="#642800"/></g><g id="Grass-middle"><path d="M277.68065,177.6868c-1.50721,1.35649 -4.32068,0.70337 -6.12934,0.65313l-7.83752,-0.20096c-5.37573,-0.15072 -10.75147,-0.30144 -16.17744,-0.55265c-4.97381,-0.2512 -9.89738,-0.85409 -14.82095,-1.15553c-2.46178,-0.15072 -4.87333,-0.30144 -7.33511,-0.35168c-1.80866,-0.05024 -4.52164,0.40192 -5.97862,-0.95457c3.11491,-3.86852 8.64136,-3.21539 13.11277,-3.26563c5.52645,-0.05024 11.25387,0.35168 16.78032,-0.45216c5.47621,-0.80385 11.15339,-1.40673 16.78032,-0.95457c5.8279,0.45216 8.28968,2.66275 11.60555,7.23463z" id="Shape_31_" fill="#82783c"/><path d="M-0.3,174.52164h482.15801v187.3468h-482.15801v-187.3468" id="Rectangle-path_1_" fill="#645a1e"/><path d="M258.18734,196.87866c1.05505,-10.2993 13.06253,-12.30892 21.45269,-13.41421c12.25868,-1.55746 24.91928,-2.41154 37.27845,-1.75842c23.31159,1.25601 46.82414,0.45216 70.13573,2.41154c12.35916,8.08872 1.50721,18.28754 -9.14377,20.79956c-13.51469,3.21539 -27.78299,2.21058 -41.54889,2.61251c-14.61998,0.45216 -29.08925,-0.05024 -43.70923,-0.2512c-12.20844,-0.05024 -28.13468,1.70818 -34.46498,-10.39978z" id="Shape_32_" fill="#82783c"/><path d="M286.32201,265.6579c2.31106,-8.69161 7.28487,-15.07215 15.92624,-18.4885c4.37092,-1.70818 8.89257,-2.76323 13.41421,-2.3613c8.03848,0.65313 14.92143,3.91876 18.58898,12.81133c0.30144,0.70337 0.70337,1.30625 1.00481,1.95938c0.80385,1.90914 1.15553,4.01924 1.05505,6.0791z" id="Shape_33_" fill="#322800"/><path d="M224.57645,274.14854c2.31106,-8.69161 7.28487,-15.07215 15.92624,-18.4885c4.37092,-1.70818 8.89257,-2.76323 13.41421,-2.3613c8.03848,0.65313 14.92143,3.91876 18.58898,12.81133c0.30144,0.70337 0.70337,1.30625 1.00481,1.95938c0.80385,1.90914 1.15553,4.01924 1.05505,6.0791z" id="Shape_34_" fill="#463c00"/><path d="M171.12056,266.96415c-12.45964,3.46659 -24.16568,2.41154 -36.92676,2.21058c-6.02886,-0.05024 -12.00748,-1.00481 -17.78513,-2.81347c-4.97381,-1.50721 -10.90219,-1.90914 -14.41902,-6.22982c-4.72261,-11.05291 26.37626,-9.44521 31.09887,-9.49545c6.98343,-0.05024 13.91662,0.75361 20.79956,1.70818c7.18439,1.00481 14.31854,1.20577 21.50293,1.8589l1.25601,3.56707c-0.55265,4.11972 -2.26082,7.03367 -5.52645,9.19401z" id="Shape_35_" fill="#463c00"/><path d="M46.32318,189.59379c0.40192,-4.67237 5.8279,-5.67718 9.64617,-6.22982c5.57669,-0.85409 11.25387,-1.20577 16.88081,-1.05505c10.60074,0.40192 21.25173,-0.10048 31.80223,0.70337c5.67718,3.61732 0.80385,8.28968 -4.01924,9.49545c-6.12934,1.50721 -12.56012,1.15553 -18.84018,1.45697c-6.63175,0.30144 -13.21325,0.15072 -19.84499,0.15072c-5.47621,0 -12.71084,0.90433 -15.62479,-4.52164z" id="Shape_36_" fill="#82783c"/><path d="M179.30976,170.85409l0.75361,0.2512c0.05024,1.30625 0.10048,2.56227 0.20096,3.76804c-0.10048,0.10048 -0.15072,0.15072 -0.2512,0.20096c-0.20096,0 -0.40192,0 -0.55265,0c-0.10048,-0.30144 -0.15072,-0.60289 -0.20096,-0.95457c0,-1.00481 0.05024,-2.00962 0.05024,-3.26563z" id="Shape_37_" fill="#645a1e"/><path d="M177.35038,174.97381c-0.20096,-0.2512 -0.40192,-0.35168 -0.40192,-0.5024c-0.05024,-0.65313 -0.10048,-1.35649 -0.10048,-2.00962c0.05024,-0.35168 0.15072,-0.75361 0.2512,-1.10529l0.65313,0.35168c0.10048,2.51202 0.10048,2.51202 -0.40192,3.26563z" id="Shape_38_" fill="#645a1e"/><path d="M182.72612,174.97381l-0.80385,0.15072c-0.55265,-1.05505 -0.05024,-2.05986 -0.15072,-3.11491l0.55265,-0.15072c0.40192,1.05505 0.2512,2.05986 0.40192,3.11491z" id="Shape_39_" fill="#645a1e"/><path d="M92.19275,176.48102c-0.20096,-0.2512 -0.40192,-0.35168 -0.40192,-0.5024c-0.05024,-0.65313 -0.10048,-1.35649 -0.10048,-2.00962c0.05024,-0.35168 0.15072,-0.75361 0.2512,-1.10529l0.65313,0.35168c0.15072,2.51202 0.15072,2.51202 -0.40192,3.26563z" id="Shape_40_" fill="#645a1e"/><path d="M97.56848,176.53126l-0.80385,0.15072c-0.55265,-1.05505 -0.05024,-2.05986 -0.15072,-3.11491l0.55265,-0.15072c0.45216,1.05505 0.30144,2.05986 0.40192,3.11491z" id="Shape_41_" fill="#645a1e"/><path d="M454.77838,176.43078l-0.65313,-0.2512c0.10048,-1.70818 0.40192,-3.36611 0.15072,-5.12453l0.80385,-0.15072c0.05024,1.80866 -0.05024,3.66756 -0.30144,5.52645z" id="Shape_42_" fill="#645a1e"/><path d="M452.66828,173.26563c0.10048,1.00481 0.20096,1.90914 0.35168,2.96419h-0.85409c-0.05024,-1.05505 -0.10048,-2.00962 -0.20096,-3.11491z" id="Shape_43_" fill="#645a1e"/></g><g id="Tree-1"><path d="M305.21122,116.46372c1.05505,1.65794 4.06948,4.82309 4.01924,6.78247c-4.37092,1.25601 -10.50026,0.5024 -14.87119,-0.5024c-4.37092,-1.00481 -9.14377,-2.3613 -13.16301,-4.2202c-9.69642,-4.52164 -16.67984,-11.80652 -23.11063,-20.14644c-6.22982,-7.98824 -10.95243,-16.3784 -16.1272,-24.96952c-2.31106,-3.86852 -4.27044,-8.13896 -6.3303,-12.1582c-1.65794,-3.26563 -5.97862,-8.49064 -5.67718,-12.25868c0.60289,-1.00481 1.55746,-1.75842 2.71299,-2.05986c1.70818,2.16034 2.61251,5.02405 3.969,7.43559c1.25601,2.21058 2.46178,4.32068 3.51683,6.63175c2.3613,5.07429 5.97862,9.54569 8.33992,14.61998c2.26082,1.75842 3.81828,4.87333 5.47621,7.18439c1.65794,2.31106 3.41635,4.67237 5.17477,6.93319c3.7178,4.92357 7.53607,9.44521 12.61036,13.01229c10.39978,7.28487 21.00053,11.75628 33.46017,13.71565z" id="Shape_44_" fill="#824600"/><path d="M325.96054,97.87473c0.35168,-0.95457 1.35649,-1.50721 2.21058,-2.00962c2.91395,-1.90914 5.97862,-3.51683 9.19401,-4.77285c3.21539,-1.10529 6.3303,-2.46178 9.29449,-4.06948c0.35168,-0.15072 0.75361,-0.30144 1.15553,-0.45216c0.65313,0.35168 0.2512,0.85409 -0.15072,1.15553c-1.20577,0.95457 -2.46178,1.80866 -3.76804,2.61251c-4.72261,2.56227 -9.69642,4.62213 -14.61998,6.88295c-1.10529,0.5024 -2.16034,0.95457 -3.31587,0.65313z" id="Shape_45_" fill="#642800"/><path d="M339.37476,54.91911c0.80385,5.92838 -0.60289,12.45964 -1.45697,18.33778c-0.90433,6.63175 -2.3613,13.11277 -4.42116,19.49331c-3.969,11.80652 -10.24906,26.12506 -20.54836,33.76161c-0.45216,-1.90914 0.30144,-4.06948 0.45216,-5.97862c0.15072,-2.46178 0.15072,-4.87333 -0.05024,-7.33511c-0.2512,-4.01924 -1.00481,-8.99305 0.10048,-12.91181c6.68199,-5.02405 11.00267,-12.05772 14.36878,-19.64403c1.80866,-4.11972 3.46659,-8.13896 4.37092,-12.61036c0.80385,-4.16996 1.15553,-8.64136 2.51202,-12.6606c1.50721,-0.80385 2.96419,-0.75361 4.67237,-0.45216z" id="Shape_46_" fill="#824600"/><path d="M296.92154,266.23062c0.10048,-6.02886 1.00481,-12.20844 1.45697,-18.18706c0.55265,-7.08391 14.36878,-241.35533 16.78032,-248.58996c2.46178,-0.60289 4.92357,-0.45216 7.18439,0c1.6077,1.45697 -4.16996,56.67128 -4.27044,58.58041c-0.15072,2.56227 -2.56227,62.39869 -2.81347,64.70975c-0.05024,0.15072 -0.05024,0.2512 -0.05024,0.35168c-0.15072,1.35649 -3.7178,52.853 -3.76804,55.16406c-0.15072,4.4714 -3.56707,68.17635 -5.27525,87.9711z" id="Shape_47_" fill="#824600"/><path d="M274.96644,266.23062c2.51202,-42.50346 15.97648,-247.98707 17.68465,-266.77702h24.76856c-4.52164,69.98501 -17.23249,243.11374 -19.34259,266.77702z" id="Shape_48_" fill="#a0640a"/><path d="M291.79701,266.23062h-12.76109l25.52217,-161.32222l-12.76109,161.32222" id="Shape_49_" fill="#824600"/><path d="M270.39456,3.92501c1.30625,-1.05505 2.61251,-2.81347 4.16996,-2.71299c0.90433,4.77285 1.00481,43.85995 1.05505,48.73328c0.05024,5.22501 1.25601,10.60074 2.41154,15.67503c1.00481,4.82309 2.81347,9.49545 5.32549,13.71565c1.20577,2.00962 3.16515,3.81828 4.01924,5.97862c0.85409,2.16034 0.75361,5.57669 0.5024,7.938c-4.01924,-1.25601 -7.53607,-7.63655 -9.44521,-11.05291c-2.3613,-4.37092 -4.01924,-9.04329 -4.97381,-13.91662c-2.21058,-10.65098 -4.01924,-53.50612 -3.06467,-64.35807z" id="Shape_50_" fill="#a0640a"/></g><g id="Grass-foreground"><path d="M482.00873,257.41253v104.14854h-482.30873v-97.36608v-19.47824c36.27364,0 75.76266,5.76258 97.06463,7.21956c7.53607,0.5024 39.58951,4.77285 54.9631,6.3303c19.59379,2.00962 51.79795,3.969 87.77014,3.969c65.21216,0 85.00691,-1.00481 118.3666,-4.52164c24.5676,-2.61251 75.96363,-12.99722 123.99354,-12.99722z" id="Shape_52_" fill="#82783c"/><path d="M49.48833,283.48734c-5.77766,10.65098 -19.94548,8.89257 -30.74718,8.89257h-19.04115v-22.30678c6.88295,0.2512 26.72794,0.70337 30.84766,1.25601c7.43559,1.05505 18.13682,3.01443 18.94067,12.1582z" id="Shape_54_" fill="#645a1e"/><path d="M448.3476,271.32914c4.11972,-0.55265 26.77818,-1.00481 33.66113,-1.25601v22.30678h-21.80437c-10.80171,0 -24.96952,1.75842 -30.74718,-8.89257c0.80385,-9.14377 11.45483,-11.10315 18.89043,-12.1582z" id="Shape_55_" fill="#645a1e"/><path d="M129.01903,257.71397c-0.10048,-1.25601 -0.20096,-2.26082 0.15072,-3.41635l0.75361,0.05024v2.96419z" id="Shape_56_" fill="#82783c"/><path d="M127.21037,256.96036h-0.70337c-0.30144,-0.80385 0.15072,-1.6077 -0.05024,-2.46178l0.80385,-0.30144c0.20096,1.00481 -0.15072,1.80866 -0.05024,2.76323z" id="Shape_57_" fill="#82783c"/><path d="M200.10933,257.96517l0.75361,0.2512c0.05024,1.30625 0.10048,2.56227 0.15072,3.76804c-0.10048,0.10048 -0.15072,0.15072 -0.2512,0.20096c-0.20096,0 -0.40192,0 -0.55265,0c-0.10048,-0.30144 -0.15072,-0.65313 -0.20096,-0.95457c0,-1.00481 0.05024,-2.00962 0.10048,-3.26563z" id="Shape_58_" fill="#82783c"/><path d="M198.09971,262.03465c-0.20096,-0.2512 -0.40192,-0.35168 -0.40192,-0.5024c-0.05024,-0.65313 -0.10048,-1.35649 -0.10048,-2.00962c0.05024,-0.35168 0.15072,-0.75361 0.2512,-1.10529l0.65313,0.35168c0.15072,2.51202 0.15072,2.51202 -0.40192,3.26563z" id="Shape_59_" fill="#82783c"/><path d="M203.47544,262.08489l-0.80385,0.15072c-0.55265,-1.05505 -0.05024,-2.05986 -0.15072,-3.11491l0.55265,-0.15072c0.40192,1.00481 0.2512,2.05986 0.40192,3.11491z" id="Shape_60_" fill="#82783c"/><path d="M351.73513,259.62311l-0.65313,-0.2512c0.10048,-1.70818 0.40192,-3.36611 0.15072,-5.12453l0.80385,-0.15072c0,1.80866 -0.10048,3.66756 -0.30144,5.52645z" id="Shape_61_" fill="#82783c"/><path d="M349.57479,256.45796c0.10048,1.00481 0.20096,1.90914 0.35168,2.96419h-0.85409c-0.05024,-1.05505 -0.10048,-2.00962 -0.20096,-3.11491z" id="Shape_62_" fill="#82783c"/></g></g><path d="M214.17931,361.58708c1.80866,-9.29449 14.56974,-16.83057 22.75894,-19.34259c11.15339,-3.46659 23.86423,-2.66275 35.41955,-3.21539c12.6606,-0.60289 128.11326,-0.75361 139.76905,-0.20096c21.05077,1.00481 45.1662,-1.20577 59.63546,17.23249c1.40673,1.6077 2.3613,3.46659 2.81347,5.52645z" id="Path" fill="#645a1e" stroke-width="1"/><text transform="translate(74,82.25) scale(1.86511,1.86511)" font-size="40" xml:space="preserve" data-paper-data="{&quot;origPos&quot;:null}" fill="#ffffff" fill-rule="nonzero" stroke="none" stroke-width="1" stroke-linecap="butt" stroke-linejoin="miter" stroke-miterlimit="10" stroke-dasharray="" stroke-dashoffset="0" font-family="Handwriting" font-weight="normal" text-anchor="start" style="mix-blend-mode: normal"><tspan x="0" dy="0">Game Over</tspan></text><path d="M190.5,79c0,-1.38071 1.11929,-2.5 2.5,-2.5c1.38071,0 2.5,1.11929 2.5,2.5c0,1.38071 -1.11929,2.5 -2.5,2.5c-1.38071,0 -2.5,-1.11929 -2.5,-2.5z" fill="#462f75" stroke-width="0.5"/></g></g></svg>